<svg xmlns="http://www.w3.org/2000/svg" xmlns:xlink="http://www.w3.org/1999/xlink" version="1.0" id="Capa_1" x="0px" y="0px" enable-background="new 0 0 1400 978" xml:space="preserve" viewBox="329.7 77.3 667.3 823.4" style="position: static; opacity: 1;">
<g>
	<path fill="#7DA4EC" d="M329.8,415.3c0.7-0.6,0.8-1.5,1-2.4c2.3-8.4,7.6-13.9,16-15.8c8.5-1.9,15.8,0.8,21.4,7.5   c0.3,0.3,0.5,0.6,0.7,1c0.2,0.2,0.5,0.6,0.7,0.6c0.6,0,0.4-0.6,0.4-0.9c0.2-5.4,1.4-10.6,3.7-15.5c7.2-16,23.1-25.9,40.6-25.3   c20.9,0.7,38.1,16.1,41.1,36.7c0.7,5.1,0.4,10.2,0.4,15.3c0,1-0.4,1.5-1.4,1.5c-0.6,0-1.1,0-1.7,0c-40,0-79.9,0-119.9,0   c-1,0-2.1-0.1-3.1-0.2C329.8,416.9,329.8,416.1,329.8,415.3z"/>
	<path fill="#151D38" d="M541.9,77.3c0.1,1.3,0.2,2.7,0.4,4c0.4,2.5,1.4,4.6,4.3,5c1.1,0.1,1,0.9,1,1.6c0,0.6,0.1,1.3-0.9,1.4   c-3.1,0.5-4.1,2.7-4.4,5.4c-0.1,0.7-0.1,1.4-0.2,2.1c-0.2,1.5-0.4,1.5-1.8,1.5c-0.8,0-1.2-0.3-1.2-1.1c0-1.3-0.1-2.5-0.4-3.8   c-0.5-2.1-1.6-3.7-3.8-4c-1.1-0.2-1.1-0.8-1.1-1.7c0-0.8,0.1-1.3,1.1-1.4c2.3-0.3,3.3-1.9,3.8-4c0.4-1.6,0.5-3.3,0.4-5   C540,77.3,541,77.3,541.9,77.3z M540.7,86.1c-0.3,0-1.8,1.5-1.7,1.9c0.2,0.8,0.8,1.3,1.4,1.8c0.2,0.2,1.7-1.3,1.8-1.7   C542.3,87.7,541,86.1,540.7,86.1z"/>
	<path fill="#151D38" d="M757,900.7c-78.5,0-157,0-235.4,0c-0.9,0-1.8,0-2.6,0c-0.8,0-1.4-0.5-1.4-1.3c0-0.9,0.5-1.5,1.4-1.6   c0.7-0.1,1.4,0,2.2,0c29.7,0,59.4,0,89,0c0.8,0,1.6,0,2.4,0c0.8-0.1,2,0.4,2.5-0.3c0.4-0.6-0.6-1.3-1-2c-3.1-5.9,0.3-13.4,6.9-15   c3.3-0.8,6.8-0.9,10.2-1.4c8.6-1.1,17.3-2,26-3c1.7-0.2,2.6-2.1,1.8-3.4c-0.2-0.3-0.5-0.4-0.8-0.4c-0.4,0-0.8,0-1.2,0   c-2.4-0.1-2.7-0.3-2.7-2.9c0-15.8,0-31.5,0-47.3c0-3.3,0.3-3-2.9-3c-8.2,0-16.5,0-24.7,0c-0.6,0-1.1,0-1.7,0   c-1.4-0.1-1.7-0.5-1.8-2c0-0.7,0-1.4,0-2.2c0-45.7,0-91.4,0-137c0-0.5,0-1,0-1.4c-0.1-0.7,0.4-1.6-0.3-2c-0.6-0.3-1.1,0.5-1.6,0.8   c-10.8,7.2-30.7,2.8-33.1-15.7c-1.6-12.4-3.4-24.9-5.1-37.3c-1.3-9.7-2.6-19.3-4-29c-0.3-2.1-0.9-4.2-1.7-6.2   c-0.7-1.8-0.7-1.8-2.2-0.6c-3.7,2.9-7.9,3.9-12.4,2.9c-5-1.1-8.4-4.3-10.1-9c-1.6-4.3-2.9-8.6-4.3-13c-0.9-2.8,0.4-5.2,2.9-6   c2.4-0.7,4.7,0.6,5.6,3.2c1.3,3.7,2.4,7.4,3.7,11.2c0.3,0.8,0.6,1.7,1,2.4c2.1,3.4,7.1,3.3,9.2-0.1c0.5-0.8,0.4-1.3-0.7-1.5   c-1.1-0.2-2.2-0.5-3.2-0.9c-3.3-1.2-4.5-4.6-2.7-7.6c0.6-0.9,0.7-1.6,0.4-2.6c-0.4-1.7-0.1-3.4,1.1-4.7c0.6-0.7,0.8-1.4,0.8-2.4   c-0.2-3.9,1.9-6.2,5.8-6.3c1.4,0,1.4-0.5,1.2-1.5c-1-5.9,4.3-11.6,10.6-10.1c1.6,0.4,1.7-0.5,2.1-1.5c3.8-9.8,7.6-19.5,11.4-29.3   c13.4-34.5,26.7-69,40.2-103.5c0.7-1.9,0.5-3-0.7-4.5c-9-10.8-20.2-17.7-34.1-20.2c-6.2-1.1-12.4-1-18.6,0   c-0.3,0.1-0.6,0.1-0.9,0.2c-1.9,0.5-3.3,0-4.4-1.8c-2.8-4.3-6.2-8.1-10.1-11.5c-12.2-10.4-26.3-14.9-42.2-13.4   c-1.7,0.2-3.3,0.5-5,0.8c-0.9,0.1-2,0.4-2.5-0.8c-0.5-1.2,0.4-1.7,1.2-2.3c6.8-4.8,13.9-9.1,21.3-12.9   c15.7-7.9,32.2-13.3,49.6-15.6c25.8-3.4,50.9-0.3,75.1,9.1c0.2,0.1,0.4,0.2,0.7,0.3c1.7,0.6,1.7,0.6,2.4-1.1c0.6-1.5,1.2-3,1.7-4.5   c0.2-0.4,0.3-0.9,0.6-1.3c0.4-0.7,1.1-1,1.8-0.7c0.8,0.3,1.1,1,0.9,1.7c-0.4,1.2-0.9,2.4-1.3,3.6c-0.4,1-0.8,2.1-1.2,3.1   c-0.3,0.7-0.1,1,0.5,1.3c0.4,0.2,0.7,0.3,1.1,0.5c33.4,15.4,58.2,39.8,75.3,72.2c7.9,15,13.3,31,16.8,47.6c0.1,0.7,0.2,1.4,0.3,2.1   c0,0.6-0.3,1.1-0.9,1.3c-0.6,0.2-1.2,0.1-1.5-0.3c-0.6-0.7-1.1-1.4-1.6-2.1c-8.7-12.2-20.2-20.1-34.8-23.4   c-6.9-1.5-13.8-1.7-20.7-0.4c-0.6,0.1-1.3,0.1-1.9,0.3c-1.1,0.3-1.8-0.1-2.4-1c-0.7-1-1.3-2-2.1-2.9c-9.3-12.3-21.5-19.9-36.7-22.5   c-4.7-0.8-9.4-0.9-14.1-0.4c-1.7,0.2-2.5,0.8-3,2.4c-5.1,13.4-10.4,26.8-15.6,40.2c-12.8,33.1-25.7,66.2-38.5,99.3   c-0.3,0.9-1.2,2-0.7,2.6c0.6,0.7,1.8-0.1,2.7-0.2c10.8-1.9,19,7.4,16.2,17.6c-0.6,2.1-1.6,3.8-3.3,5.2c-2.6,2.2-3.7,4.9-3.6,8.3   c0.1,4.5,0.7,8.9,1.3,13.4c1.5,11.4,3.1,22.8,4.7,34.2c0.3,2.2,0.6,4.4,0.9,6.7c0,0.3,0.2,0.8,0.3,0.8c0.5,0,0.5-0.5,0.6-0.9   c0.7-2.9,1.4-5.8,2-8.6c0.8-3.3,1.7-6.7,3-9.8c2.6-6.1,6.7-11.1,12.4-14.5c1.9-1.2,3.8-2.3,5.8-3.4c4.8-2.6,7-6.6,6.9-12   c0-4.2,0-8.3,0-12.5c0-2.3,0.4-4.8-0.1-6.9c-0.6-2.2-2.9-3.5-4.4-5.2c-24.3-27.9-19.6-70.9,10.1-93.1c2.2-1.7,2.2-1.7-0.1-3.4   c-2.4-1.8-4.7-3.8-6.7-6.2c-0.6-0.7-1.2-1.3-0.7-2.3c0.5-0.9,1.4-0.9,2.3-0.9c14.7,0,29.5-0.3,44.2,0.1c25.2,0.8,44,12.5,56.1,34.7   c4.7,8.6,6.9,17.9,7.1,27.6c0.1,4.3-0.8,8.4-1.2,12.6c-1,9.5-2.1,18.9-3.2,28.4c-0.9,7.9-1.7,15.7-2.7,23.6   c-0.6,5.1,1,9.3,5.1,12.4c1.8,1.4,3.7,2.5,5.7,3.6c2.3,1.3,4.6,2.6,6.7,4.2c5.4,4.1,8.2,9.7,8.8,16.4c0.2,2.1,0.2,4.3,0.2,6.5   c0,35.2,0,70.4,0,105.6c0,1.8,0.4,3,2.1,4.1c6.1,4,7.3,12.8,2.9,18.9c-1.3,1.8-1.3,1.8,0.6,2.8c20.9,11.4,41.9,22.7,62.8,34.1   c1.1,0.6,2.1,0.8,3.4,0.6c5.9-1,11.5-0.2,16.3,3.7c0.2,0.2,0.4,0.3,0.6,0.4c0.5,0.3,0.9,0.4,0.9-0.4c0-0.6,0-1.3,0-1.9   c0-9.8-0.1-19.7,0-29.5c0.1-13.8,9.6-25.9,22.9-29.4c17.1-4.4,34.5,7.2,37.2,24.6c0.2,1.3-0.2,3,0.8,3.8c0.9,0.7,2.4,0.6,3.7,0.8   c4.3,0.7,8.7,1.5,13,2.2c1.2,0.2,2.4,0.4,3.5,0.9c3.3,1.3,4.6,4,3.7,7.4c-0.3,1.3-1,2.5-1.6,3.7c-4.1,8.1-10.3,13.7-18.8,16.8   c-2.5,0.9-4.9,1.9-7.2,3.3c-1.2,0.8-2.4,1.6-3.4,2.7c-1.7,1.7-1.7,1.7,0,3.3c3.7,3.6,2.6,9.5-2.2,11.4c-1.4,0.5-1.8,1.2-1.8,2.5   c0,9.2,0,18.4,1,27.6c0.8,6.9,2.1,13.7,3.5,20.6c1.2,6.3,2.5,12.5,3.7,18.8c0.2,1.3,0.7,2.1,2,2.6c2.8,1.1,4.8,3.2,5.8,6   c0.6,1.7,1.5,2,3.2,2c22.1,0,44.2,0,66.2,0c0.7,0,1.4,0,2.2,0.1c0.8,0.1,1.3,0.6,1.3,1.5c0,0.8-0.5,1.3-1.3,1.4   c-0.9,0.1-1.8,0-2.6,0C914,900.7,835.5,900.7,757,900.7z"/>
	<path fill="#151D38" d="M581.8,566c-0.5,0.4-1,0.9-1.6,1c-2,0.6-2.7,2.2-3.3,4c-0.8,2.4-1.7,4.8-2.8,7.1c-2,4.5-6.6,6.6-10.8,5.1   c-2.9-1-4.5-3.1-5.4-5.9c-1.3-3.9-2.5-7.7-3.8-11.6c-0.3-0.9-0.8-1.6-1.9-1.4c-1,0.2-1.3,1-0.9,2.3c1.4,4.3,2.7,8.7,4.3,12.9   c1.2,3.3,3.7,5.6,7.1,6.6c5.6,1.7,11.6-1.1,14.2-6.8c1.8-4.1,3.3-8.3,4.9-12.5C581.8,566.6,581.7,566.3,581.8,566   c0-0.1,0.1-0.1,0.1-0.2C581.8,565.9,581.8,565.9,581.8,566z"/>
	<path fill="#151D38" d="M817.7,894c0,0-0.1,0.1-0.1,0.1C817.7,894.1,817.7,894.1,817.7,894c-0.8-0.2-1.2-0.9-1.8-1.5   c-2.8-2.9-5.3-6-7.6-9.3c-6.8-10.1-11.1-21.2-14-32.9c-3.7-14.9-5.1-30.1-5.3-45.4c0-1.9,0-3.8,0-5.8c-0.1-1.8-1.2-2.9-2.8-3.5   c-1.7-0.6-3.4-0.1-4.5,1.3c-0.5,0.7-1,1.5-1.4,2.2c-11.8,22.5-11.1,44.9,1.4,66.8c7.5,13.2,18.8,22.2,33,27.7   C815.7,894,816.7,894.8,817.7,894z"/>
	<path fill="#FFFFFF" d="M858,816.2c-4.3,3.4-9.2,4.7-14.6,4c-6.3-0.9-11.2-4.4-15.5-8.9c-1.2-1.2-1.1-1.9,0.1-3   c1.2-1.1,2.4-2.2,3.7-3.1c0.9-0.6,0.8-1.1,0.3-1.9c-0.8-1.3-1.5-2.7-2.2-4c-0.5-0.9-0.2-1.7,0.7-2.3c0.3-0.2,0.7-0.4,1.1-0.6   c0.7-0.4,2-0.5,2-1.1c0-0.8-1.3-1-2-1.4c-20-10.9-40-21.7-60-32.6c-1.5-0.8-2.8-1.3-4.4-0.4c-0.9,0.5-2.1,0.8-3.2,0.8   c-1.4,0.1-1.8,0.7-1.6,2c0.1,0.6,0,1.1,0,1.7c0,16.6,0,33.3,0,49.9c0,0.6,0,1.3,0,1.9c0,1.1-0.6,1.8-1.8,1.8c-0.6,0-1.3,0-1.9,0   c-10.2,0-20.5,0-30.7,0c-2.3,0-2.3,0-2.4,2.4c0,0.4,0,0.8,0,1.2c0,15.2,0,30.4,0,45.6c0,3.7,0,3.7-3.7,4c-0.2,0-0.5,0-0.7,0   c-0.3,0.1-0.6,0.2-0.7,0.6c-0.7,1.6,0.1,3.1,1.8,3.3c8.6,1,17.2,2,25.7,3c3.4,0.4,6.9,0.6,10.2,1.4c7.1,1.5,10.4,9.4,6.8,15.6   c-0.2,0.3-0.4,0.7-0.6,1c-0.2,0.4,0,0.6,0.3,0.6c0.6,0,1.3,0,1.9,0c15.7,0,31.4,0,47,0c0.8,0,1.6-0.1,2.4-0.1   c-0.4-0.9-1.4-0.9-2.2-1.1c-39.3-15.1-56.3-62.3-35.7-99c0.5-0.8,0.9-1.7,1.5-2.4c1.8-2.3,4.9-3.2,7.8-2.3c2.9,0.9,4.8,3.4,4.9,6.4   c0,1.4,0,2.7,0,4.1c0.1,14.9,1.3,29.7,4.7,44.3c2.7,11.6,6.7,22.7,13.2,32.7c2.8,4.4,6.1,8.4,9.9,12c0.3,0.3,0.7,0.9,1.1,0.7   c0.6-0.3,0.2-1,0.1-1.5c-0.4-2.1-0.7-4.3-0.8-6.4c-0.4-8.1,1.5-15.7,5-22.9c3-6.2,6.8-11.8,11-17.1c4.4-5.6,9-11,13.5-16.5   c2.6-3.2,5.2-6.5,7.5-10C857.8,817.8,858.7,817.2,858,816.2c0.2,0,0.1,0.5,0.4,0.2C858.3,816.3,858.2,816.2,858,816.2z"/>
	<path fill="#27355E" d="M713.2,650.2c0,52.2,0,104.5,0,156.7c0,2.3,0,4.6,0,7c0,2.1,0,2.1,2.1,2.1c13.9,0,27.8,0,41.8,0   c2.1,0,2.1,0,2.1-2.1c0-0.3,0-0.6,0-1c0-14.9,0-29.8,0-44.6c0-0.4,0-0.8,0-1.2c0-2.2-0.1-2.2-1.9-1.1c-1.4,0.8-2.9,1.7-4.3,2.6   c-1.7,1-3.6,1.4-5.5,1.1c-5.3-0.8-8.5-5-7.7-10.5c0.2-1.1,0.1-1.9-0.9-2.6c-1.5-1.2-2-2.9-1.7-4.8c0.2-1.3,0.1-2.2-0.7-3.3   c-1.7-2.2-1.5-5.2,0.6-7c1.4-1.2,1.7-2.5,1.7-4.1c0-31.1,0-62.2,0-93.3c0-0.7,0-1.4,0-2.2c0-0.9,0.4-1.6,1.4-1.6   c1,0,1.4,0.6,1.5,1.5c0,0.6,0,1.3,0,1.9c0,15,0,30.1,0,45.1c0,14.4,0,28.8,0,43.2c0,2.5-0.2,2.5,2.5,2.5c6,0,12,0,18,0   c3.5,0,3.1,0.4,3.1-3c0-34.8,0-69.6,0-104.4c0-1.2,0-2.4,0-3.6c-0.2-7.8-3.4-13.8-10.1-17.9c-0.9-0.5-1.8-1.1-2.7-1.6   c-1.9-1.1-3.9-2.3-5.8-3.4c-6.4-4-8.7-9.8-7.7-17.2c1.1-7.9,1.8-15.9,2.7-23.8c1.1-9.4,2.2-18.7,3.1-28.1c0.4-4.2,1.3-8.4,1.1-12.6   c-0.6-10.1-3.3-19.5-8.5-28.2c-8.3-13.7-20.2-22.9-35.6-27.5c-0.3-0.1-0.7-0.3-0.9,0c-0.2,0.3,0.2,0.5,0.5,0.7   c2.6,2,4.9,4.4,6.7,7.1c3.7,5.4,5.1,11.5,5.1,17.9C713.1,542.6,713.2,596.4,713.2,650.2z"/>
	<path fill="#27355E" d="M654.2,696.9c0-38.7,0-77.4,0-116.1c0-0.6,0-1.3,0-1.9c0.1-0.9-0.3-1.5-1.1-1.9c-2.7-1.5-5.2-3.2-7.6-5.1   c-0.3-0.2-0.6-0.7-1-0.5c-0.6,0.2-0.4,0.8-0.4,1.2c0,5.3,0,10.6,0,15.8c0,6-2.4,10.7-7.6,13.7c-2,1.2-4,2.4-6,3.5   c-5.8,3.4-9.7,8.2-12.1,14.4c-0.8,2.2-1.5,4.4-2.1,6.6c-1.5,6.2-3,12.4-4.4,18.7c-0.2,0.7-0.3,1.4-0.6,2.1   c-0.2,0.5-0.7,0.9-1.3,0.9c-0.7,0-1.2-0.3-1.4-1.1c-0.2-0.7-0.3-1.4-0.4-2.1c-0.3-1.9-0.5-3.8-0.8-5.7c-1.5-11.2-3-22.3-4.6-33.5   c-0.6-4.3-1.2-8.5-1.8-12.8c-0.1-1-0.6-1.4-1.6-1.2c-5.3,0.8-10.6,1.5-15.9,2.2c-1.3,0.2-1.5,0.8-1.3,1.9c0.7,4.9,1.4,9.8,2,14.7   c1.5,11.2,3.1,22.5,4.6,33.7c0.8,5.5,1.3,11.1,2.4,16.6c2.8,14.7,20.9,18.3,30,10.1c1.2-1,1.7-2.1,1.6-3.7c-0.1-8,0-16,0-24   c0-0.6,0-1.3,0.1-1.9c0.1-0.8,0.7-1.2,1.5-1.2c0.7,0,1.2,0.5,1.3,1.2c0.1,0.9,0.1,1.8,0.1,2.6c0,56.1,0,112.1,0,168.2   c0,0.8,0,1.6,0,2.4c0,0.9,0.4,1.3,1.3,1.2c0.6,0,1.1,0,1.7,0c7.3,0,14.6,0,21.8,0c3.8,0,3.4,0.5,3.4-3.3   C654.2,774.2,654.2,735.5,654.2,696.9z"/>
	<path fill="#FAE0D6" d="M710.1,532.6c0-13,0-25.9,0-38.9c0-2.6,0-5.1-0.1-7.7c-0.1-2.2-0.1-2.2-2.3-2.2c-7.4-0.2-14.7-0.7-22-1.9   c-11.4-1.8-22.3-5-32.4-10.7c-1.2-0.7-1.9-0.6-3,0.1c-20,14.7-28.9,34.5-25.6,59.1c2.6,19.5,13.2,34.1,30.2,44.1   c1.6,0.9,2.3,1.9,2.2,3.8c-0.3,3.3,1.1,5.9,3.3,8.2c2.1,2.2,4.7,3.8,7.5,5.2c4.8,2.4,9.9,4,15.1,5.4c0.7,0.2,1.4,0.2,2.1-0.1   c2.9-0.9,5.8-1.7,8.7-2.8c4.1-1.5,8.1-3.4,11.5-6.3c3.2-2.7,4.8-5.9,4.8-10.2C710,562.7,710.1,547.7,710.1,532.6z"/>
	<path fill="#CCD6DA" d="M851,897.7c7.3,0,14.6,0,21.8,0c1.1,0,2.7,0.6,3-0.4c0.3-0.9-1.1-1.7-2-2.4c-0.7-0.6-1-1.3-0.5-2.1   c0.6-0.9,1.5-0.8,2.3-0.3c1.3,0.8,2.3,1.9,3.1,3.2c0.4,0.6,0.3,1.7,1.3,1.9c0.8,0.1,1.6,0.1,2.4,0.1c0.7,0,0.8-0.4,0.5-0.9   c-0.5-0.9-1.2-1.5-2-2.1c-0.7-0.6-1-1.3-0.5-2.1c0.6-0.9,1.5-0.8,2.3-0.3c1.4,0.9,2.6,2.1,3.1,3.6c0.5,1.7,1.6,2,3,1.8   c0.4,0,0.8,0,1.2,0c0.8,0,1-0.3,0.7-1c-1-2.4-2.6-4.1-5.3-4.8c-2-0.5-1.9-0.6-2-2.7c-0.1-3.9-0.5-7.7-1.4-11.4   c-3.2-13-10.4-22.7-23.1-27.7c-0.4-0.2-0.9-0.4-1.3-0.6c-0.6-0.4-0.7-1-0.5-1.7c0.2-0.7,0.8-1,1.5-0.9c0.6,0.1,1.2,0.3,1.8,0.5   c8,3.2,14.4,8.5,19,15.9c4.4,7.3,6.5,15.2,7,23.7c0.1,1.3,0.3,2.2,1.7,2.7c2.7,1.1,4.3,3.2,5.4,5.8c0.2,0.5,0.4,1,0.6,1.6   c0.2,0.7,0.7,0.8,1.3,0.7c0.7-0.2,0.4-0.7,0.3-1.1c-0.2-0.7-0.3-1.4-0.5-2.1c-3.6-15.9-7.2-31.8-10.8-47.7   c-0.1-0.5-0.3-1.1-0.3-1.6c0-0.8,0.5-1.4,1.3-1.5c0.7-0.1,1.3,0.2,1.5,0.9c0.2,0.5,0.3,1.1,0.5,1.6c3.7,16,7.3,32.1,11,48.1   c0.8,3.5,0.8,3.5,4.4,3.5c1,0,2.5,0.6,2.8-0.4c0.3-0.9-1-1.6-1.9-2.2c-0.8-0.6-1.2-1.3-0.7-2.2c0.5-0.8,1.4-0.9,2.5-0.2   c1.2,0.8,2.1,1.9,2.9,3.1c0.4,0.6,0.3,1.7,1.3,1.9c0.8,0.1,1.6,0.1,2.4,0c0.7,0,0.8-0.4,0.5-0.9c-0.5-0.9-1.2-1.5-2-2.1   c-0.7-0.5-1-1.3-0.4-2.1c0.6-0.9,1.5-0.8,2.3-0.2c1.4,0.9,2.5,2.1,3.1,3.6c0.5,1.5,1.3,2.1,2.8,1.8c0.3-0.1,0.6,0,1,0   c1.7,0,1.8-0.2,0.9-1.7c-1.2-2-2.8-3.6-5.2-3.9c-1.3-0.2-1.8-0.8-1.9-2c-0.1-0.6-0.2-1.1-0.3-1.6c-1.4-7.1-2.8-14.3-4.2-21.4   c-1.6-8-3-16-3.6-24.2c-0.6-7-0.6-14.1-0.5-21.1c0-2.3,0-4.3-2.5-5.6c-0.9-0.5-1.6-1-2.7-1c-11.6,0-23.2,0-34.8,0   c-1.2,0-1.9,0.3-2.5,1.4c-3,5.2-6.6,9.8-10.3,14.4c-4.9,6.1-10.1,12-14.8,18.2c-4,5.3-7.6,10.9-10.2,17c-4,9.4-4.7,19-1.7,28.8   c1,3.3,0.8,2.7,3.5,2.7C836.1,897.7,843.6,897.7,851,897.7z"/>
	<path fill="#7DA4EC" d="M667.4,337.6c-0.1-0.8-0.8-0.9-1.4-1c-6.4-2.1-13-2.4-19.7-1.2c-7.5,1.3-14.4,4.1-21,7.7   c-15.4,8.6-27.8,20.6-39.2,33.7c-0.2,0.3-0.7,0.6-0.5,1c0.2,0.5,0.7,0.2,1.1,0.1c5.8-0.5,11.7-0.6,17.4,0.6   c14.9,2.9,26.9,10.6,36.2,22.5c0.3,0.4,0.7,0.9,1,1.3c0.4,0.5,0.8,0.5,1-0.2c0.1-0.3,0.3-0.6,0.4-0.9c8.1-20.8,16.2-41.7,24.3-62.5   C667.1,338.4,667.2,338,667.4,337.6z"/>
	<path fill="#7DA4EC" d="M702.3,415.3c0.1-6.3-0.3-12.6-1-18.9c-1.1-9.6-3-19.1-6.5-28.2c-3.1-8.3-7.4-16-13.7-22.3   c-2.6-2.6-5.4-4.8-8.6-6.5c-2.5-1.4-2.1-1.1-3,1c0,0.1-0.1,0.2-0.1,0.2c-7.9,20.4-15.9,40.8-23.8,61.2c-0.2,0.4-0.3,0.9-0.5,1.3   c-0.3,0.9,0,1.2,0.9,1c1.2-0.2,2.4-0.4,3.6-0.4c18-1.2,33.5,4.5,46.5,17c1.8,1.7,3.4,3.6,5,5.5c0.2,0.3,0.4,0.8,0.9,0.6   c0.4-0.2,0.3-0.7,0.3-1.1C702.3,422.4,702.3,418.8,702.3,415.3z"/>
	<path fill="#7DA4EC" d="M610.2,325.9c-5.2-0.1-11.5,0.4-17.8,1.2c-16.6,2.2-32.4,7-47.5,14.4c-5.7,2.8-11.2,5.9-16.5,9.3   c-0.3,0.2-0.9,0.4-0.7,0.8c0.2,0.4,0.7,0.1,1.1,0.1c5.8-0.4,11.5,0.1,17.1,1.5c14,3.4,25.1,11.2,33.8,22.6c1.7,2.3,1.4,2.2,3.3,0   c0.2-0.2,0.3-0.4,0.5-0.5c7.1-8.3,14.8-16.2,23.3-23.1c12.8-10.3,26.6-18.6,43.4-20.3c0.2,0,0.5-0.1,0.7-0.2   c-0.1-0.4-0.4-0.4-0.7-0.5c-0.5-0.1-0.9-0.3-1.4-0.4C636.5,327.5,624,325.8,610.2,325.9z"/>
	<path fill="#7DA4EC" d="M705.6,416.2c-0.1,4.2-0.3,8.3-0.4,12.5c0,1.6,0,1.6,1.6,1.5c0.6,0,1.1-0.1,1.7-0.2   c4.3-0.6,8.6-0.6,12.9-0.2c15.1,1.6,27.7,8.2,38,19.4c0.4,0.4,0.7,0.8,1.1,1.2c0.1,0.1,0.3,0.2,0.4,0.2c0.3-0.1,0.2-0.3,0.1-0.6   c-0.1-0.5-0.2-1.1-0.4-1.6c-2.4-9.5-5.5-18.7-9.4-27.6c-13.5-30.7-34.1-55.3-62.7-73.1c-0.5-0.3-1.1-0.7-1.6-1   c-0.1-0.1-0.3-0.1-0.4-0.1c-0.3,0.2-0.1,0.4,0,0.6c1,1.3,2,2.5,2.9,3.8c5.9,8.4,9.5,17.9,11.9,27.8   C704.3,391.1,705.3,403.6,705.6,416.2z"/>
	<path fill="#CCD6DA" d="M885.2,769.8c0,9.2,0,18.4,0,27.6c0,3-0.7,5.7-2.4,8.2c-0.2,0.4-0.8,0.7-0.6,1.2c0.2,0.5,0.9,0.3,1.3,0.3   c5.3,0,10.6,0,15.8,0c1.3,0,2.3-0.2,3.2-1.2c0.6-0.7,1.6-1.2,2.5-1.3c1.1-0.1,1.7-0.7,2.3-1.5c1.6-2.4,3.9-4.2,6.4-5.7   c2.3-1.4,4.9-2.4,7.4-3.3c5.1-1.8,9.3-4.9,12.9-8.9c0.7-0.9,0.9-1.4-0.2-2.2c-3.7-2.8-5.2-6.6-4.3-11.2c0.2-1.2,0-1.5-1.2-1.7   c-3.7-0.6-7.4-1.2-11.1-1.9c-1.7-0.3-1.8-0.5-2-2.1c0-0.4,0-0.8-0.1-1.2c-1.1-11.7-6.9-19.9-17.8-24.3c-3.4-1.4-6.9-1.8-10.6-1.7   c-1.3,0-1.7,0.5-1.6,1.7c0.1,0.6,0,1.1,0,1.7C885.2,751.4,885.2,760.6,885.2,769.8z"/>
	<path fill="#27355E" d="M698,766.5c0-15.3,0-30.7,0-46c0-0.8,0-1.6,0-2.4c-0.2-2.1-1.2-3.7-2.8-5.1c-2.4-2-8.7-1.9-10.9-0.1   c-1.8,1.4-2.9,3.2-3,5.5c0,0.7,0,1.4,0,2.2c0,30,0,60,0,89.9c0,1.3,0,2.6,0,3.8c0,1.7,0.1,1.8,1.7,1.8c4.5,0,9,0,13.4,0   c1.2,0,1.8-0.3,1.7-1.6c-0.1-0.6,0-1.1,0-1.7C698,797.3,698,781.9,698,766.5z"/>
	<path fill="#FFFFFF" d="M682.6,638.9c0-11.6,0-23.2,0-34.8c0-0.6,0-1.3,0-1.9c0-0.5-0.4-0.7-0.8-0.5c-0.5,0.3-1.1,0.7-1.5,1.1   c-3.5,3-6,6.7-7.8,10.8c-0.3,0.7-0.6,1.5-0.9,2.2c-0.4,1-1.2,1.3-2.1,0.9c-0.7-0.3-1.3-0.6-1.9-1c-3.1-1.8-5.8-4.2-8.4-6.7   c-0.5-0.5-0.9-1.4-1.6-1.2c-0.7,0.3-0.3,1.3-0.3,1.9c0,21.4,0,42.9,0,64.3c0,0.5,0,1,0,1.4c0,0.7,0.4,1,1.1,1c0.5,0,1,0,1.4,0   c6.8,0,13.6,0,20.4,0c2.9,0,2.6,0.2,2.6-2.6C682.6,662.2,682.6,650.5,682.6,638.9z"/>
	<path fill="#FFFFFF" d="M685.6,638.8c0,11.8,0,23.7,0,35.5c0,2.2,0,2.2,2.3,2.2c6.5,0,12.9,0,19.4,0c3.1,0,2.8,0.3,2.8-2.9   c0-20.9,0-41.7,0-62.6c0-0.6,0-1.1,0-1.7c0-0.3,0.1-0.7-0.3-0.8c-0.4-0.1-0.6,0.2-0.8,0.4c-1.5,1.3-2.9,2.7-4.5,4   c-1.6,1.3-3.3,2.5-5.2,3.4c-1.8,0.9-2.4,0.7-3.1-1.1c-0.2-0.4-0.3-0.9-0.5-1.3c-1.9-4.3-4.4-8.1-8-11.2c-0.5-0.4-1-1.2-1.6-0.9   c-0.8,0.3-0.4,1.3-0.4,1.9C685.6,615.4,685.6,627.1,685.6,638.8z"/>
	<path fill="#FFFFFF" d="M698,858.6c0-10.8,0-21.6,0-32.4c0-1.9,0-3.8,0-5.8c0-1-0.2-1.5-1.3-1.5c-4.7,0-9.4,0-14.1,0   c-0.9,0-1.4,0.3-1.3,1.2c0,0.6,0,1.3,0,1.9c0,13.4,0,26.8,0,40.3c0,11.1,0,22.2,0,33.3c0,1.9,0,1.9,1.9,1.9c4.3,0,8.6,0,12.9,0   c1.9,0,1.9,0,1.9-2C698,883.3,698,871,698,858.6z"/>
	<path fill="#151D38" d="M882.3,770.1c0-9.1,0-18.2,0-27.3c0-2.6,0-2.7-2.5-1.8c-10.5,3.7-16.8,11-18.7,22c-0.2,1.2-0.4,2.4-0.4,3.6   c0,10.3-0.1,20.6,0,30.9c0,7.7,7.3,12.9,14.4,10.4c4.3-1.6,7.1-5.5,7.1-10.4C882.3,788.4,882.3,779.3,882.3,770.1z"/>
	<path fill="#FAE0D6" d="M596.8,553.9c-1,0-2.1,0.1-3.1,0.4c-1.9,0.5-3.9,0.8-5.8,1.3c-1.6,0.4-2.4,1.7-2.1,3c0.3,1.4,1.6,2.3,3.3,2   c0.4-0.1,0.8-0.2,1.2-0.3c1.5-0.3,3-0.7,4.4-1c0.9-0.2,1.6,0.1,1.9,1.1c0.3,0.9-0.2,1.6-1.1,1.8c-2.4,0.6-4.8,1.3-7.3,1.4   c-2,0-2,0-2.7,1.8c-2.2,5.5-4.1,11.1-6.6,16.4c-0.2,0.5-0.3,0.9-0.1,1.3c1.1,2.2,2,4.5,2.5,7c0.2,0.9,0.6,1.1,1.5,1   c5.5-0.8,10.9-1.5,16.4-2.2c1-0.1,1.3-0.6,1.2-1.6c-0.1-1-0.2-2.1-0.3-3.1c-0.4-5,0.7-9.4,4.7-12.7c1.2-1,1.9-2.3,2.3-3.8   C609.3,560.8,604.1,553.9,596.8,553.9z"/>
	<path fill="#27355E" d="M732.1,889.2c1.2,0,2.4,0,3.6,0c8.4,0,16.8,0,25.2,0c2.1,0,2.4-0.5,1.3-2.3c-1.4-2.5-3.7-3.6-6.5-3.9   c-8.7-1-17.3-2-26-3c-3.7-0.4-7.5-0.9-11.2-1.3c-1-0.1-1.4-0.5-1.4-1.5c0.1-1.1-0.1-2.2,0-3.4c0.1-1.3-0.5-1.6-1.7-1.6   c-4.2,0-8.5,0-12.7,0c-1.8,0-1.8,0.1-1.8,1.9c0,0.8,0,1.6,0,2.4c0,3.7,0,7.4,0,11c0,1.2,0.3,1.8,1.6,1.7c0.6,0,1.1,0,1.7,0   C713.5,889.2,722.8,889.2,732.1,889.2z"/>
	<path fill="#27355E" d="M647,889.2c7,0,13.9,0,20.9,0c3,0,5.9,0,8.9,0c1,0,1.5-0.3,1.5-1.4c0-4.8,0-9.6,0-14.4   c0-1.1-0.5-1.4-1.5-1.4c-1,0-1.9,0-2.9,0c-3.4,0-6.9,0-10.3,0c-1.3,0-1.7,0.5-1.6,1.7c0.1,0.9,0,1.8,0,2.6c0,1.9,0,2-1.9,2.2   c-9,1.1-18.1,2.2-27.1,3.2c-3.5,0.4-7,0.8-10.5,1.3c-2.4,0.3-4.2,1.6-5.4,3.6c-0.4,0.7-1.1,1.4-0.6,2.2c0.4,0.7,1.3,0.3,2,0.3   C628,889.2,637.5,889.2,647,889.2z"/>
	<path fill="#151D38" d="M585.1,550.4c0.3,0.7,0.2,2.1,1.1,2.3c1.2,0.3,1.3-1.1,1.7-1.9c0.2-0.3,0.3-0.7,0.4-1.1   c14-36.1,28-72.2,42-108.4c4.1-10.5,8.2-21,12.2-31.5c0.6-1.7,0.6-1.6-1-2.3c-0.9-0.4-1.3-0.3-1.6,0.6c-0.2,0.5-0.4,1-0.6,1.6   c-9.8,25.4-19.7,50.8-29.5,76.2c-8,20.7-16.1,41.4-24.1,62.1C585.5,548.7,585.1,549.4,585.1,550.4z"/>
	<path fill="#FFFFFF" d="M732,892.3c-9.3,0-18.7,0-28,0c-3.2,0-3-0.5-3,3.2c0,0.2,0,0.3,0,0.5c0.1,1.1,0.7,1.8,1.8,1.7   c0.6,0,1.3,0,1.9,0c16.6,0,33.2,0,49.9,0c0.7,0,1.4,0,2.2,0c2.1-0.2,3.8-1.1,5.1-2.8c0.5-0.6,1.2-1.3,0.8-2.1   c-0.4-0.9-1.4-0.4-2.1-0.4C751,892.3,741.5,892.3,732,892.3z"/>
	<path fill="#FFFFFF" d="M647.3,892.3c-5,0-10.1,0-15.1,0c-4.7,0-9.4,0-14.2,0c-1.9,0-2.1,0.4-1.1,2c1.4,2.3,3.5,3.4,6.2,3.4   c17.4,0,34.9,0,52.3,0c2.4,0,2.7-0.3,2.7-2.8c0-2.7,0.3-2.6-2.6-2.6C666.2,892.3,656.8,892.3,647.3,892.3z"/>
	<path fill="#FAE0D6" d="M755.6,737.6c-2.2,0-4.3,0-6.5,0c-0.6,0-1.4-0.2-1.6,0.2c-0.3,0.7,0.7,0.9,1,1.4c0.3,0.5,0.8,1,1,1.6   c0.3,0.9,0.8,1.5,1.7,1.8c2,0.6,3.2,2.1,3.6,4.1c0.2,1,0.8,1.4,1.4,2c1.5,1.4,2.9,2.8,5.3,2.1c0.8-0.2,1.4,0.5,1.5,1.3   c0.1,0.9-0.5,1.5-1.4,1.6c-1.3,0.2-2.5,0.3-3.8,0.5c-0.9,0.1-1.8,0.2-2.6,0.4c-1.3,0.4-1.9,1.5-1.8,2.8c0.2,1.2,1,2.2,2.2,2.1   c3.6-0.2,7.2-0.1,10.6-1.5c4.4-1.8,7-6.6,6.3-11.3c-0.7-4.9-4.3-8.2-9.4-8.8C760.8,737.5,758.2,737.6,755.6,737.6z"/>
	<path fill="#E5384A" d="M851.2,811.5c2.6-0.1,5.8-0.8,8.9-2.1c1.4-0.6,1.4-0.6,0.6-2.1c-1.2-2.2-2.7-4.1-4.5-5.9   c-2.7-2.7-5.8-4.6-9.6-5c-4.3-0.5-8.4,0.5-12.4,2c-1.1,0.4-1,1-0.5,1.8c1.6,2.6,3.4,5.1,5.7,7.1   C842.5,810.1,846.1,811.6,851.2,811.5z"/>
	<path fill="#FFFFFF" d="M657.1,595.2C657.1,595.2,657.1,595.2,657.1,595.2c0,1.9,0,3.8,0,5.7c0,0.8,0.1,1.5,0.7,2.2   c3,3.5,6.2,6.6,10,9.2c1.4,0.9,1.4,0.9,2.1-0.5c2.2-4.6,5-8.7,9-11.9c0.6-0.5,0.7-0.8-0.2-1.1c-0.5-0.1-1.1-0.3-1.6-0.5   c-6.9-2.3-13.7-4.8-19-10.1c-0.2-0.2-0.5-0.5-0.8-0.3c-0.1,0.1-0.2,0.4-0.2,0.6C657.1,590.9,657.1,593.1,657.1,595.2z"/>
	<path fill="#FFFFFF" d="M710.1,595.8C710.1,595.8,710.1,595.8,710.1,595.8c0-2.2,0-4.5,0-6.7c0-0.3,0.1-0.7-0.3-0.8   c-0.4-0.1-0.6,0.2-0.8,0.4c-4.1,4.1-9.2,6.5-14.5,8.5c-1.6,0.6-3.3,1.1-5,1.7c-0.9,0.3-1.3,0.6-0.3,1.3c4,3.1,6.7,7.2,8.9,11.7   c0.7,1.5,0.8,1.5,2.1,0.6c3.5-2.3,6.4-5.2,9.2-8.3c0.6-0.6,0.8-1.3,0.8-2.2C710.1,599.9,710.1,597.8,710.1,595.8z"/>
	<path fill="#FAE0D6" d="M748.5,766.8c1.1,0,2.1-0.3,3-0.8c1.1-0.7,2.2-1.3,3.3-2c0.5-0.3,1.5-0.5,1.5-1.1c-0.1-0.7-1-0.3-1.6-0.6   c-0.3-0.1-0.7-0.1-0.9-0.3c-1.2-0.9-2.2-0.8-3.4,0.2c-0.8,0.6-1.7,0.5-2.3-0.4c-0.5-0.8-0.1-1.5,0.6-2.1c0.3-0.2,0.5-0.4,0.8-0.6   c0.8-0.4,1-1,1-2c-0.1-2.3,1-4.1,3.1-5.3c0.3-0.2,0.9-0.1,0.7-0.7c-0.1-0.5-0.6-0.4-1-0.4c-0.5,0-0.9,0.2-1.3,0.4   c-2.5,1.7-5,3.4-7.4,5.2c-2,1.6-2.5,4.2-1.6,6.5C743.9,765.4,746,766.8,748.5,766.8z"/>
	<path fill="#E5384A" d="M845.9,817.4c3.1-0.1,5.9-1,8.6-2.5c0.2-0.1,0.5-0.3,0.5-0.5c0-0.5-0.5-0.2-0.7-0.3c-0.3,0-0.6,0.1-1,0.1   c-6.6,1-12.2-0.9-16.9-5.5c-2.2-2.1-2.1-2.1-4.5-0.1c-0.1,0.1-0.2,0.2-0.4,0.3c-0.8,0.6-0.6,1.1,0,1.7c1.3,1.2,2.7,2.3,4.2,3.2   C838.9,816,842.2,817.3,845.9,817.4z"/>
	<path fill="#E5384A" d="M882.1,812.2c5.2,0,10.4,0,15.6,0c0.6,0,1.1,0,1.7-0.1c0.5-0.1,0.6-0.4,0.6-0.9c0-0.5,0.1-1-0.6-1.2   c-0.4-0.1-0.8-0.1-1.2-0.1c-6.4,0-12.8,0-19.2,0c-0.7,0-1.4,0.1-2.1,0.4c-3.4,1.4-6.8,1.4-10.3,0.3c-0.5-0.2-1-0.5-1.5,0.1   c-0.2,0.3-0.5,0.7-0.2,1.1c0.3,0.5,0.9,0.3,1.3,0.3C871.6,812.2,876.8,812.2,882.1,812.2z"/>
	<path fill="#FAE0D6" d="M582.2,543.1c-3.7,0.1-6.4,3.5-5.7,7.2c0.3,1.7,1,3.4,1.5,5c0.3,0.9,0.9,1.5,1.9,1.7c2,0.4,3.6-1.2,3-3.3   c-0.5-1.8-1.2-3.6-1.7-5.5c-0.4-1.4-0.1-2,1.3-2.2c1.4-0.2,1.6-1.2,1.5-2C583.9,542.9,582.8,543.2,582.2,543.1z"/>
	<path fill="#FAE0D6" d="M572.2,554.9c-1.3-0.1-2.1,0.5-2.6,1.5c-0.6,1.1-0.3,2.1,0.5,2.9c1.6,1.6,3.3,3.2,5,4.8   c1.4,1.3,2.9,1.2,4,0c1-1.2,1-2.6-0.5-3.8c-1.6-1.3-3-2.9-4.5-4.3C573.6,555.4,573,554.9,572.2,554.9z"/>
	<path fill="#151D38" d="M932.3,773.6c0,2.8,1.5,5.7,3.6,7c0.6,0.4,1.1,0.5,1.5-0.2c0.9-1.6,1.8-3.2,2.3-5c0.5-1.7-0.1-2.7-1.7-3.5   c-1.2-0.6-2.4-0.7-3.7-0.9c-1.1-0.2-1.7,0.1-1.8,1.3C932.5,772.8,932.3,773.3,932.3,773.6z"/>
	<path fill="#FAE0D6" d="M740.1,752.4c0,0.9,0.2,1.7,1,2.1c0.7,0.5,1.1-0.2,1.6-0.6c2.7-1.9,5.4-3.7,8.1-5.6c1.3-0.9,1.4-2,0-2.8   c-0.9-0.5-1.9-0.6-2.7,0c-2.4,1.6-4.7,3.3-7.1,4.9C740.4,751.1,740.1,751.7,740.1,752.4z"/>
	<path fill="#EBBE62" d="M907,815.1c2.1-0.1,3.8-1.9,3.7-4.1c-0.1-2.1-1.8-3.7-3.9-3.6c-2.1,0.1-3.8,1.8-3.8,3.8   C903,813.3,904.9,815.2,907,815.1z"/>
	<path fill="#FAE0D6" d="M746.9,742.2c-0.1-1.1-1.8-2.1-3-1.6c-1.9,0.8-3.6,2-5,3.5c-0.3,0.3-0.4,0.7-0.4,1.1   c-0.1,0.8,0.2,1.6,0.9,2.1c0.7,0.5,1.2-0.1,1.7-0.4c1.7-1.2,3.4-2.4,5.1-3.6C746.5,743.1,747,742.8,746.9,742.2z"/>
	<path fill="#FAE0D6" d="M574.2,567.4c-0.1-0.1-0.2-0.4-0.3-0.5c-1.6-1.5-3.1-2.9-4.7-4.4c-0.7-0.7-1.1-0.2-1.4,0.4   c-0.6,1.3-0.3,2.2,1.5,3.8c1.2,1.1,2.3,2.6,4.3,1.5C573.8,568.2,574.1,568,574.2,567.4z"/>
	<path fill="#FAE0D6" d="M572.8,572.4c0.1-0.4,0-0.5-0.6-0.6c-1.7-0.1-3-0.8-4.2-1.9c-0.3-0.3-0.6-0.6-1-0.5   c-0.5,0.2-0.6,0.7-0.6,1.2c-0.1,0.9,0.4,1.6,1.1,1.9c1,0.4,2.1,0.8,3.2,1C571.6,573.7,572.4,573.2,572.8,572.4z"/>
	<path fill="#151D38" d="M582.7,560c0,0-0.1,0.1-0.1,0.1c0.1,0.9,0.1,1.7,0.3,2.6c0.1,0.5,0.3,0,0.4-0.1c0.6-0.7,0.3-2.1-0.4-2.6   C582.8,560,582.7,560,582.7,560z"/>
	<path fill="#7DA4EC" d="M739.5,291.9c-30.2,0-60.5,0-90.7,0c-1.9,0-3.3-0.5-4.7-1.8c-15.4-14-22.3-31.5-20.4-52.2   c2.4-26.1,22.6-48.2,48.4-53.1c32.6-6.3,63.5,13.6,71.2,45.9c0.6,2.6,1.1,5.3,1.3,8c0.1,0.9,0.4,1.1,1.2,0.6   c0.4-0.3,0.8-0.6,1.2-0.8c22-15.2,52.3-2.4,56.8,23.9c0.5,2.8,0.4,5.6,0.4,8.4c0,1.5,0.1,1.6,1.4,0.7c4.9-3.1,10.1-3.8,15.6-2.1   c8.6,2.7,14.2,11.8,12.5,20.5c-0.4,2-0.4,2-2.4,2c-7.5,0-15,0-22.6,0C785.6,291.9,762.5,291.9,739.5,291.9z"/>
	<path fill="#7DA4EC" d="M855.1,396.2c-30.2,0-60.5,0-90.7,0c-3.2,0-3,0.3-2.7-3c1.1-10.9,10.9-20.1,21.9-20.6   c8.5-0.4,15.4,2.8,20.6,9.6c0.2,0.3,0.4,0.5,0.6,0.8c0.1,0.1,0.3,0.3,0.4,0.3c0.3,0,0.4-0.2,0.4-0.5c0-0.9,0-1.8,0-2.6   c0-3.9-0.1-7.8,0.7-11.7c2.9-14.4,15.7-24.9,30.4-25.2c14.9-0.3,29.9,10.7,31.9,28.3c0.2,1.9,0.1,3.8,0.2,5.8   c0,0.2,0.1,0.6,0.2,0.6c0.3,0,0.3-0.3,0.4-0.5c0.2-0.5,0.3-0.9,0.5-1.4c3.2-9.5,12.6-15.1,21.9-13.7c10.2,1.5,17.5,9.6,17.7,19.9   c0.1,2.7,0,5.4,0,8.2c0,0.3,0.1,0.9,0.2,0.9c0.6,0.1,0.5-0.5,0.6-0.8c0.5-1.3,1-2.5,1.6-3.7c4-7.3,12.3-11.3,20.4-10   c8.3,1.3,15,7.8,16.5,15.9c0.7,3.7,0.7,3.7-3.1,3.7C915.6,396.2,885.4,396.2,855.1,396.2z"/>
	<path fill="#151D38" d="M461.2,262.4c-18.6,0.1-33.9,14.8-34.6,33.3c0,0.2,0,0.5,0,0.7c0,0.9-0.1,1.8-1.2,2.1   c-1.1,0.3-1.6-0.6-2-1.3c-5.2-8-15.9-10-23.6-4.4c-4.1,3-6.4,7.1-6.8,12.2c-0.2,1.9-0.7,2.8-1.7,2.6c-0.9-0.1-1.3-0.9-1.2-2.8   c0.6-7.7,4.5-13.3,11.5-16.4c7.1-3.2,13.9-2.1,20.1,2.6c2.1,1.6,2.1,1.7,2.6-0.9c2.7-14.8,14.5-26.9,29.3-29.9c0.1,0,0.2,0,0.2,0   c2.2-0.4,2.2-0.4,1-2.4c-10.9-17.4-1.6-39.9,18.3-44.4c3.5-0.8,7-1,10.5-0.3c0.2,0,0.6,0.1,0.7,0.2c0.1,0.4-0.3,0.5-0.5,0.7   c-0.5,0.3-1,0.5-1.5,0.7c-7.9,4.4-12.2,13.5-10.6,22.1c1.7,9.3,8.9,16.4,18,17.6c6,0.8,11.4-0.6,16.2-4.4c0.4-0.3,0.7-0.6,1.1-0.9   c0.2-0.2,0.5-0.5,0.8-0.3c0.3,0.2,0.1,0.6,0,0.9c-0.1,0.5-0.3,1.1-0.5,1.6c-3,8.4-8.5,14.3-16.7,17.8c-0.5,0.2-1,0.4-1.6,0.6   c-0.9,0.2-1,0.6-0.4,1.3c0.5,0.6,1.1,1.2,1.6,1.8c5.6,6.6,8.4,14.2,8.9,22.8c0,0.6,0,1.3-0.1,1.9c-0.1,0.6-0.5,1-1.2,1   c-0.7,0.1-1.3-0.3-1.4-1c-0.2-0.6-0.2-1.3-0.2-1.9c-0.9-16.9-13-30.4-29.8-32.9C464.6,262.5,462.9,262.5,461.2,262.4z"/>
	<path fill="#151D38" d="M823.7,222.1c0-12.7,8-23.6,19.8-27.4c11.8-3.8,24.7,0.5,31.9,10.6c1.6,2.2,1.6,2.2,4.1,1.4   c12.5-4.1,25.5,4.6,26.4,17.7c0,0.5,0,1,0,1.4c0,0.8-0.5,1.4-1.3,1.5c-0.9,0.1-1.5-0.5-1.6-1.4c-0.1-0.4,0-0.8-0.1-1.2   c-0.9-12-13.2-19.4-24.2-14.5c-0.5,0.2-1,0.5-1.5,0.7c-1.1,0.5-1.8,0.2-2.4-0.8c-0.2-0.4-0.5-0.8-0.7-1.3   c-6.2-10.4-18.6-15.1-30.1-11.2c-11.5,3.8-18.6,15-17.3,27.1c0,0.4,0.1,0.8,0.1,1.2c-0.1,0.8-0.6,1.3-1.4,1.4c-0.7,0-1.2-0.3-1.4-1   C823.6,224.9,823.7,223.4,823.7,222.1z"/>
	<path fill="#151D38" d="M782.5,142.1c-1.2,0.2-1.5-0.4-1.5-1.5c0-2.7-0.3-5.4-0.9-8.1c-0.4-1.6-0.9-3.2-1.8-4.7   c-1.7-2.8-4.3-4.1-7.5-4.5c-1.6-0.2-1.9-0.6-1.7-2.1c0.1-0.6,0.4-0.8,0.9-0.9c0.4,0,0.8-0.1,1.2-0.2c4.4-0.5,7-3.1,8.4-7.1   c0.9-2.8,1.2-5.6,1.4-8.5c0-0.5,0.1-1,0-1.4c-0.1-1.1,0.3-1.6,1.5-1.6c1.3,0,1.4,0.6,1.4,1.7c0,3.3,0.3,6.6,1.4,9.7   c1.3,4.2,4,6.9,8.5,7.3c0.2,0,0.5,0.1,0.7,0.1c1.3,0,1.3,0.8,1.3,1.8c0,1-0.5,1.2-1.3,1.3c-5.5,0.3-8.4,3.6-9.6,8.8   c-0.7,2.8-1,5.7-1,8.6C783.9,141.7,783.6,142.3,782.5,142.1z M788.4,121.7c-0.2-0.2-0.4-0.3-0.6-0.5c-2.2-1.4-3.7-3.4-4.8-5.8   c-0.1-0.3-0.2-0.9-0.7-0.7c-0.2,0.1-0.4,0.5-0.5,0.7c-1.1,2.4-2.5,4.4-4.8,5.8c-0.7,0.4-0.7,0.8,0,1.2c2.3,1.5,3.8,3.6,4.9,6   c0.3,0.7,0.7,0.9,1.1,0c1.1-2.6,2.7-4.7,5-6.2C788.2,122.2,788.2,122,788.4,121.7z"/>
	<path fill="#151D38" d="M496.2,151c0.1,1-0.2,1.5-1.3,1.6c-6.1,0.2-8.7,4.5-9.7,9.5c-0.5,2.4-0.6,4.7-0.8,7.1   c-0.1,1.7-0.2,1.7-1.5,1.8c-1.5,0.1-1.4-0.9-1.4-1.9c0-2.6-0.3-5.3-0.9-7.8c-1.2-5-3.9-8.3-9.4-8.7c-1.1-0.1-1.3-0.6-1.3-1.5   c0-0.9,0.2-1.6,1.3-1.6c0.3,0,0.6-0.1,1-0.1c3.6-0.4,6-2.4,7.5-5.6c1.3-2.9,1.7-6,1.9-9.1c0.1-0.8,0.1-1.6,0.1-2.4   c0-1.2,0.7-1.2,1.6-1.2c0.9,0,1.3,0.3,1.3,1.2c0.1,2.6,0.2,5.3,0.8,7.9c0.2,0.8,0.4,1.6,0.6,2.3c1.4,4.1,4.1,6.6,8.5,7   C495.4,149.5,496.4,149.6,496.2,151z M482.8,158.1c0.4,0.1,0.4,0.1,0.6-0.3c1.1-2.6,2.6-4.7,5-6.2c0.6-0.4,0.4-0.7-0.1-1   c-2.2-1.4-3.7-3.5-4.8-5.8c-0.1-0.3-0.1-0.7-0.5-0.7c-0.4,0-0.5,0.4-0.6,0.7c-1,2.4-2.5,4.4-4.7,5.9c-0.8,0.5-0.4,0.9,0.1,1.2   c2.2,1.4,3.6,3.4,4.6,5.7C482.5,157.6,482.7,157.9,482.8,158.1z"/>
	<path fill="#151D38" d="M911.3,281c1.1-0.1,1.6,0.3,1.6,1.5c0,2.5,0.1,4.9,0.5,7.4c0.3,1.7,0.7,3.3,1.4,4.8c1.2,2.7,3.2,4.6,6.2,5   c1,0.1,1.8,0.3,1.8,1.7c0,1.2-0.6,1.4-1.6,1.5c-3,0.3-4.9,2-6.2,4.7c-1.3,2.6-1.7,5.5-1.9,8.3c-0.1,1.3-0.1,2.6-0.1,3.8   c0,1,0.1,1.9-1.4,1.9c-1.4-0.1-1.5-0.1-1.6-1.9c-0.1-2.5-0.1-4.9-0.6-7.4c-0.3-1.5-0.7-3-1.3-4.3c-1.3-2.8-3.3-4.7-6.5-5   c-0.9-0.1-1.5-0.2-1.5-1.4c0-1,0.1-1.7,1.3-1.8c4-0.4,6-2.9,7.2-6.4c0.7-2.2,1.1-4.5,1.2-6.8c0.1-1.4,0.1-2.7,0.2-4.1   C909.8,281.5,910.2,280.9,911.3,281z M911.3,294.6c-0.2,0.2-0.3,0.4-0.4,0.6c-1,2.2-2.2,4.2-4.2,5.7c-0.6,0.5-0.2,0.8,0.2,1.1   c1.8,1.4,3,3.2,3.9,5.3c0.1,0.3,0.2,0.7,0.6,0.6c0.2,0,0.3-0.3,0.4-0.5c0.9-2.2,2.2-4.1,4.1-5.5c0.5-0.4,0.5-0.7,0-1.1   c-1.9-1.4-3.2-3.4-4.1-5.5C911.7,295,911.5,294.9,911.3,294.6z"/>
	<path fill="#151D38" d="M898.5,161.9c0.2,1-0.3,1.4-1.3,1.5c-4,0.4-5.9,3-6.8,6.7c-0.4,1.9-0.7,3.8-0.6,5.7c0,1.2-0.5,1.5-1.6,1.5   c-1.1,0-1.3-0.5-1.4-1.4c-0.1-2-0.2-4-0.7-5.9c-0.9-3.6-2.8-6.1-6.7-6.5c-1-0.1-1.4-0.4-1.4-1.4c0-1.1,0.4-1.5,1.5-1.6   c3.7-0.4,5.6-2.7,6.5-6.1c0.6-2.1,0.7-4.3,0.8-6.4c0-1,0.5-1.4,1.5-1.4c1,0,1.5,0.2,1.5,1.3c0,1.9,0.1,3.8,0.6,5.7   c0.8,3.8,2.7,6.5,6.9,6.9C898.4,160.4,898.6,160.9,898.5,161.9z M891.9,162.1c0.2-0.4,0-0.6-0.2-0.7c-1.2-1-2.2-2.1-2.9-3.5   c-0.3-0.5-0.6-0.7-1,0c-0.7,1.3-1.5,2.5-2.7,3.3c-0.8,0.6-0.6,1,0.1,1.5c1.1,0.9,1.9,1.9,2.5,3.1c0.4,0.7,0.7,0.8,1.1,0   c0.7-1.3,1.6-2.4,2.7-3.3C891.7,162.3,891.9,162.1,891.9,162.1z"/>
	<path fill="#ACDCF6" d="M411.6,650.2c0.2-4.4,2.6-8.1,5.9-11.3c0.4-0.4,0.8-0.4,1.2,0c3.4,3.3,5.9,7,5.9,11.9   c0.1,3.7-3,6.4-6.7,6.3C414.3,657,411.6,654.3,411.6,650.2z"/>
	<path fill="#151D38" d="M566,233.7c-1.1,0.1-1.4-0.4-1.4-1.4c0-1.8-0.2-3.5-0.5-5.2c-0.8-3.7-2.5-6.4-6.7-6.7   c-0.8-0.1-1.2-0.4-1.1-1.2c0.1-0.6-0.4-1.6,0.7-1.7c6.1-0.7,7-5.2,7.5-10.1c0.1-0.7,0.1-1.4,0.1-2.2c0-1,0.5-1.2,1.3-1.2   c0.9,0,1.5,0.1,1.6,1.2c0.1,1.8,0.2,3.7,0.6,5.5c0.8,3.6,2.5,6.2,6.5,6.6c1,0.1,1.4,0.5,1.3,1.5c0,0.9-0.2,1.4-1.3,1.5   c-3.6,0.3-5.5,2.6-6.4,5.9c-0.5,2-0.6,4.1-0.8,6.2C567.4,233.6,566.9,233.9,566,233.7z M566.1,214.7c-0.2,0.1-0.4,0.2-0.4,0.3   c-0.8,1.3-1.7,2.5-2.9,3.4c-0.4,0.3-0.2,0.7,0.1,1c1.1,0.9,2,2,2.7,3.3c0.2,0.4,0.6,0.5,0.9,0c0.7-1.4,1.9-2.5,3-3.6   c-0.7-1.5-2.3-2.3-2.9-3.8C566.5,215,566.3,214.8,566.1,214.7z"/>
	<path fill="#151D38" d="M481,339.5c0,4.6-2.6,7.2-6.3,7.1c-3.8-0.1-6.5-3-6.1-6.8c0.4-4.2,2.5-7.5,5.4-10.4   c0.4-0.4,0.9-0.7,1.4-0.2C478.6,332.3,480.9,335.8,481,339.5z"/>
	<path fill="#ACDCF6" d="M496.9,600.7c0,4.4-2.7,7.1-6.4,7c-3.7-0.1-6.3-2.9-6.1-6.6c0.3-4.3,2.5-7.7,5.5-10.6   c0.5-0.5,0.9-0.6,1.4-0.1C494.4,593.5,496.7,596.9,496.9,600.7z"/>
	<path fill="#ACDCF6" d="M882.4,618.5c0,4.6-2.6,7.1-6.4,7c-3.7-0.1-6.3-2.9-6-6.6c0.3-4.3,2.5-7.7,5.5-10.6   c0.5-0.5,0.9-0.6,1.4-0.1C880,611.4,882.3,614.8,882.4,618.5z"/>
	<path fill="#151D38" d="M974.8,246.8c0.1,1-0.2,1.5-1.2,1.6c-3.4,0.4-4.8,2.7-5.5,5.8c-0.3,1.4-0.4,2.8-0.4,4.3   c0,1.1-0.3,1.6-1.5,1.6c-1.2,0-1.4-0.6-1.5-1.6c-0.1-1.6-0.2-3.2-0.6-4.7c-0.7-2.8-2.1-4.8-5.2-5.2c-1.1-0.1-1.4-0.7-1.4-1.8   c0-1.1,0.5-1.3,1.5-1.4c2.7-0.4,4.2-2.1,4.9-4.6c0.5-1.5,0.6-3.1,0.7-4.7c0.2-2.1,0.2-2.1,1.6-2.2c1.7-0.1,1.4,1.2,1.4,2.1   c0,1.5,0.2,3,0.6,4.5c0.7,2.7,2.3,4.6,5.2,4.9C974.5,245.4,974.9,245.8,974.8,246.8z M966,243.6c-0.2,0.2-0.3,0.3-0.5,0.5   c-0.5,0.6-0.9,1.3-1.5,1.8c-0.8,0.7-0.7,1.2,0,1.9c0.7,0.7,1.3,1.5,2,2.2c0.7-0.8,1.3-1.5,2-2.3c0.1-0.1,0.2-0.2,0.3-0.3   c0.4-0.3,0.5-0.7,0.1-1c-0.8-0.7-1.5-1.6-2.1-2.5C966.3,243.8,966.2,243.7,966,243.6z"/>
	<path fill="#151D38" d="M385.6,224.7c0.1,1-0.2,1.5-1.2,1.6c-3.2,0.4-4.6,2.6-5.2,5.5c-0.3,1.3-0.5,2.7-0.5,4c0,1,0.1,2-1.4,1.9   c-1.4-0.1-1.5-0.1-1.6-2c-0.1-1.4-0.2-2.9-0.5-4.3c-0.7-2.8-2.2-4.8-5.2-5.2c-1-0.1-1.3-0.6-1.3-1.6c0-1,0.3-1.4,1.3-1.5   c2.9-0.4,4.4-2.3,5.1-5c0.5-1.7,0.5-3.5,0.6-5.2c0.1-1.1,0.7-1.2,1.6-1.2c1,0,1.4,0.4,1.4,1.4c0,1.7,0.1,3.4,0.6,5   c0.7,2.7,2.2,4.7,5.1,5C385.3,223.3,385.7,223.7,385.6,224.7z M379.8,224.9c-0.1-0.2-0.2-0.5-0.3-0.6c-0.8-0.7-1.4-1.5-2-2.4   c-0.3-0.5-0.6-0.2-0.9,0.1c-0.2,0.3-0.4,0.5-0.5,0.8c-0.4,0.8-1.7,1.2-1.5,2c0.1,0.7,1,1.3,1.5,2c1,1.3,1,1.3,2.1-0.1   C378.7,226,379.3,225.5,379.8,224.9z"/>
	<path fill="#151D38" d="M642,132.8c0.1,1,0,1.6-1.2,1.7c-2.3,0.3-3.4,1.9-3.8,4c-0.3,1.2-0.4,2.5-0.5,3.8c0,1-0.5,1.2-1.4,1.2   c-0.9,0-1.6-0.1-1.6-1.2c0-1.2-0.2-2.4-0.4-3.6c-0.5-2.2-1.5-3.9-4-4.2c-0.8-0.1-1.1-0.5-1.1-1.3c0-0.7-0.3-1.6,0.8-1.7   c3.4-0.5,4.1-3.1,4.5-5.9c0.1-0.6,0.2-1.1,0.1-1.7c-0.1-1.2,0.5-1.5,1.6-1.5c1.1,0,1.3,0.5,1.4,1.4c0,1,0.2,2.1,0.4,3.1   c0.4,2.3,1.5,4.1,4,4.5C641.8,131.6,642.2,132,642,132.8z M636.7,132.9c0-0.4-1.5-1.9-1.8-1.7c-0.7,0.4-1.2,1-1.5,1.8   c-0.1,0.3,1.3,1.9,1.6,1.9C635.5,134.8,636.8,133.2,636.7,132.9z"/>
	<path fill="#ACDCF6" d="M833.8,427c0,0.8-0.1,1.6-0.4,2.3c-0.7,1.7-2,2.7-3.6,2.7c-1.5,0-2.8-1.1-3.5-2.8c-0.4-1.2-0.4-2.4-0.2-3.5   c0.3-2.5,1.3-4.7,2.8-6.7c0.8-1.1,1-1.1,1.8-0.1C832.6,421.3,833.7,424,833.8,427z"/>
	<path fill="#ACDCF6" d="M470,510.8c0,2.5-1.6,4-4,3.9c-2.3-0.1-3.8-1.8-3.6-4.1c0.2-2.4,1.4-4.4,3-6.1c0.6-0.6,1-0.6,1.6,0   C468.6,505.9,470,508.7,470,510.8z"/>
	<path fill="#ACDCF6" d="M932.1,686c0.1-2.4,1.4-4.4,3.2-6.2c0.5-0.6,1-0.3,1.4,0.1c1.6,1.6,2.7,3.5,3.1,5.8   c0.3,2.4-1.2,4.3-3.5,4.5C933.8,690.4,932,688.7,932.1,686z"/>
	<path fill="#ACDCF6" d="M876.2,518c0,3-1.6,4.5-4.1,4.4c-2.3-0.1-3.8-1.8-3.6-4.2c0.2-2.4,1.4-4.3,3.1-6.1c0.6-0.6,1.1-0.5,1.6,0   C874.8,514,876.1,516,876.2,518z"/>
	<path fill="#ACDCF6" d="M534.8,656.7c0.2-2.2,1.4-4.2,3.1-5.9c0.5-0.5,1-0.4,1.4,0c1.7,1.8,3,3.7,3.1,6.3c0.1,2.5-1.5,4.1-4,4   C536.2,661,534.7,659.4,534.8,656.7z"/>
	<path fill="#ACDCF6" d="M523,720.3c0.2-2.7,1.5-4.7,3.2-6.4c0.4-0.4,0.8-0.5,1.2,0c1.8,1.8,3.1,3.8,3.2,6.5c0.1,2.3-1.6,4-3.8,4   C524.5,724.4,522.8,722.6,523,720.3z"/>
	<path fill="#ACDCF6" d="M803.5,606.8c0.1,2.8-1.5,4.4-3.8,4.4c-2.3,0-3.9-1.5-3.9-3.8c0.1-2.6,1.4-4.7,3.2-6.5   c0.5-0.5,1-0.4,1.4,0.1C802.1,602.7,803.3,604.7,803.5,606.8z"/>
	<path fill="#ACDCF6" d="M869.6,446.3c0.2-2.5,1.5-4.5,3.2-6.2c0.4-0.4,0.8-0.4,1.2,0c1.9,1.8,3.2,4,3.2,6.7c0,2.3-1.7,3.8-4.1,3.7   C870.9,450.3,869.5,448.7,869.6,446.3z"/>
	<path fill="#ACDCF6" d="M835,559.7c0,2.3-1.6,3.9-3.9,3.9c-2.4,0-4-1.9-3.8-4.3c0.2-2.4,1.4-4.3,3.1-6.1c0.5-0.5,0.9-0.6,1.4-0.1   C833.6,555,834.8,557.1,835,559.7z"/>
	<path fill="#151D38" d="M346.7,331.1c0.1,1.6-1.2,3-2.8,3c-1.6,0-2.9-1.3-2.9-2.9c0-1.5,1.2-2.8,2.7-2.8   C345.3,328.3,346.6,329.5,346.7,331.1z"/>
	<path fill="#151D38" d="M687.3,132.9c0,1.6-1.3,2.9-2.8,2.9c-1.6,0-2.8-1.2-2.9-2.8c0-1.6,1.2-2.9,2.8-2.9   C686,130.1,687.3,131.4,687.3,132.9z"/>
	<path fill="#151D38" d="M966,343.7c1.6,0,2.9,1.2,2.9,2.8c0,1.6-1.3,2.9-2.9,2.9c-1.5,0-2.7-1.2-2.8-2.7   C963.2,345,964.4,343.8,966,343.7z"/>
	<path fill="#151D38" d="M577.5,295c0,1.7-1.3,2.8-2.9,2.8c-1.5-0.1-2.7-1.3-2.7-2.8c0-1.5,1.4-2.9,2.9-2.9   C576.3,292.1,577.5,293.4,577.5,295z"/>
	<path fill="#151D38" d="M876.1,264.4c-1.2,0-2.1-0.9-2.2-2.1c0-1.2,0.8-2.1,2-2.2c1.3-0.1,2.3,0.9,2.3,2.2   C878.2,263.4,877.2,264.4,876.1,264.4z"/>
	<path fill="#151D38" d="M581.6,150.4c0,1.1-1.1,2.1-2.2,2c-1.2-0.1-2-1-2-2.2c0.1-1.1,0.9-1.9,2.1-1.9   C580.7,148.3,581.7,149.3,581.6,150.4z"/>
	<path fill="#ACDCF6" d="M950.3,622.1c0,1-0.7,1.8-1.7,1.9c-1,0-1.8-0.7-1.8-1.8c0-1,1-2.9,1.7-2.9   C949.1,619.3,950.2,621,950.3,622.1z"/>
	<path fill="#ACDCF6" d="M430.6,577.1c0.6-0.1,1.7,1.5,1.8,2.6c0.1,1.1-0.5,1.9-1.6,2c-1,0.1-1.9-0.7-1.9-1.7   C428.8,579.1,429.9,577.2,430.6,577.1z"/>
	<path fill="#ACDCF6" d="M816,453.3c0.6-0.1,1.7,1.4,1.8,2.5c0.1,1.1-0.5,1.9-1.5,2.1c-0.9,0.1-1.7-0.5-1.9-1.4   C814.3,455.4,815.2,453.4,816,453.3z"/>
	<path fill="#ACDCF6" d="M489.2,650.7c0,1.1-0.6,1.9-1.7,1.9c-1,0-1.7-0.7-1.7-1.9c0-1.2,1.1-2.9,1.8-2.8   C488.2,648,489.1,649.7,489.2,650.7z"/>
	<path fill="#151D38" d="M745,329c0.6,0,1.7,1.6,1.8,2.6c0.1,1.1-0.6,1.9-1.6,2c-1.1,0.1-1.8-0.6-1.9-1.7   C743.3,330.9,744.3,329.1,745,329z"/>
	<path fill="#ACDCF6" d="M445.4,677.1c0.1-1.2,1.2-2.7,1.8-2.5c0.7,0.2,1.7,2,1.6,3c-0.1,1.1-0.9,1.7-2,1.6   C445.8,679.1,445.3,678.3,445.4,677.1z"/>
	<path fill="#ACDCF6" d="M855.9,675c0,1.1-0.7,1.9-1.7,1.9c-1,0-1.7-0.9-1.7-1.9c0-1,1-2.7,1.6-2.8C854.9,672,855.9,673.8,855.9,675   z"/>
	<path fill="#ACDCF6" d="M924.1,483.8c0,1.1-0.6,1.7-1.6,1.7c-1.1,0-1.8-0.7-1.8-1.8c0-1.1,1.1-2.9,1.8-2.9   C923.1,480.9,924.1,482.7,924.1,483.8z"/>
	<path fill="#151D38" d="M738.2,366.2c0.2-0.9,0.5-1.9,1.6-2.3c0.5-0.2,1.6,1.2,1.7,2.3c0.1,0.7,0.1,1.5-0.6,1.9   c-0.6,0.5-1.3,0.5-2,0.1C738.2,367.8,738.2,367.1,738.2,366.2z"/>
	<path fill="#ACDCF6" d="M904.8,563.7c0.2-0.9,0.6-1.9,1.6-2.3c0.5-0.2,1.5,1.3,1.7,2.4c0.1,0.8,0,1.4-0.6,1.9   c-0.6,0.5-1.3,0.5-2,0.1C904.7,565.3,904.7,564.6,904.8,563.7z"/>
	<path fill="#151D38" d="M455.9,447.8c0.1-1.1,1.1-2.7,1.8-2.6c0.6,0.1,1.7,2.1,1.7,3c-0.1,1-0.9,1.7-1.9,1.6   C456.3,449.8,455.8,449,455.9,447.8z"/>
	<path fill="#ACDCF6" d="M413.9,503.9c0,1-0.5,1.6-1.6,1.7c-1.1,0.1-1.8-0.6-1.9-1.7c0-1,1.1-2.9,1.7-2.9   C412.9,501,414,502.8,413.9,503.9z"/>
	<path fill="#ACDCF6" d="M515.6,545.3c0.6-0.1,1.7,1.4,1.8,2.6c0.1,1.1-0.5,1.9-1.5,2.1c-1,0.1-1.8-0.6-1.9-1.7   C513.9,547.2,514.9,545.4,515.6,545.3z"/>
	<path fill="#151D38" d="M568.7,107.9c-0.2,0.8-0.7,1.2-1.5,1.2c-0.8-0.1-1.3-0.6-1.1-1.5c0.1-0.7,0.6-1.1,1.3-1   C568.3,106.6,568.7,107.1,568.7,107.9z"/>
	<path fill="#151D38" d="M425,173.9c-0.9-0.1-1.2-0.6-1.2-1.5c0.1-0.8,0.6-1.1,1.3-1.1c0.7,0,1.2,0.5,1.2,1.2   C426.3,173.4,425.8,173.8,425,173.9z"/>
	<path fill="#151D38" d="M729,692.8c0.1,2.2-1.9,4.2-4.1,4.2c-2.2,0-3.9-1.8-4-4c0-2.3,1.5-4,3.8-4.1   C727,688.7,728.9,690.5,729,692.8z M725.8,692.6c-0.1-0.4-0.4-0.9-1.1-0.7c-0.5,0.1-0.8,0.5-0.8,1c0,0.7,0.5,0.9,1.1,0.9   C725.6,693.7,725.9,693.4,725.8,692.6z"/>
	<path fill="#151D38" d="M729,670.8c0,2.2-2,4.1-4.2,4.1c-2.2-0.1-3.9-1.8-3.9-4.1c0-2.4,1.8-4.1,4.1-4   C727.2,666.8,729,668.6,729,670.8z M725.8,670.7c-0.1-0.6-0.4-1-1-0.9c-0.5,0.1-0.8,0.4-0.8,0.9c0,0.7,0.4,1,1.1,0.9   C725.5,671.6,725.8,671.3,725.8,670.7z"/>
	<path fill="#151D38" d="M724.9,644.6c2.3,0,4.2,1.9,4.1,4.1c-0.1,2.1-1.9,4-4,4c-2.3,0-4.1-1.9-4-4.2   C721,646.3,722.6,644.6,724.9,644.6z M725.8,648.6c-0.1-0.6-0.4-1-1-1c-0.5,0-0.8,0.4-0.9,0.9c0,0.7,0.4,1,1,1   C725.5,649.5,725.8,649.2,725.8,648.6z"/>
	<path fill="#151D38" d="M669.2,520.5c-6.8-0.2-11.7-3.5-15-9.3c-0.2-0.3-0.4-0.7-0.5-1.1c-0.2-0.8-0.1-1.5,0.8-1.8   c0.7-0.3,1.4-0.1,1.9,0.6c0.4,0.7,0.8,1.4,1.2,2.1c2.6,3.9,6.2,6.2,10.9,6.4c5.4,0.2,9.3-2.4,12.1-6.8c0.4-0.6,0.7-1.3,1.1-1.8   c0.5-0.6,1.1-0.6,1.7-0.3c0.6,0.3,0.9,0.9,0.7,1.6c-0.1,0.3-0.2,0.6-0.4,0.9C680.7,516.9,675.9,520.3,669.2,520.5z"/>
	<path fill="#151D38" d="M669.6,495.9c-0.1,0.8-0.7,1.2-1.3,1.6c-2.1,1.1-4.2,2.2-6.4,3.3c-0.9,0.5-1,0.9-0.1,1.4   c1.9,1.2,3.7,2.5,5.5,3.8c0.5,0.3,0.9,0.6,1.3,1.1c0.4,0.6,0.3,1.2-0.1,1.8c-0.4,0.5-1,0.6-1.5,0.4c-0.4-0.1-0.7-0.3-1-0.6   c-2.8-1.9-5.5-3.8-8.3-5.7c-1.9-1.4-1.9-2.3,0.2-3.5c2.9-1.6,5.9-3.1,8.9-4.7c0.4-0.2,0.8-0.5,1.3-0.4   C668.9,494.4,669.6,495.1,669.6,495.9z"/>
	<path fill="#151D38" d="M700.1,505.2c0.1,2.7-2.1,4.9-4.8,5c-2.6,0-4.9-2.2-4.9-4.9c0-2.6,2.1-4.7,4.7-4.8   C697.8,500.4,700,502.5,700.1,505.2z"/>
	<path fill="#151D38" d="M648.6,505.2c0,2.7-2,4.9-4.7,5c-2.6,0-4.9-2.2-4.9-4.9c0-2.6,2-4.7,4.7-4.8   C646.4,500.4,648.5,502.5,648.6,505.2z"/>
	<path fill="#151D38" d="M696.2,490.5c3,0,6.1,1.3,8.7,3.6c0.4,0.4,0.8,0.8,1.1,1.2c0.4,0.6,0.4,1.3-0.1,1.8c-0.6,0.6-1.3,0.6-2,0.2   c-0.4-0.3-0.7-0.6-1.1-1c-4.1-3.6-9.6-3.9-14.1-0.7c-0.4,0.3-0.8,0.6-1.2,0.8c-0.6,0.4-1.3,0.3-1.8-0.2c-0.6-0.6-0.6-1.3-0.1-1.9   c0.3-0.4,0.8-0.8,1.2-1.1C689.6,491.3,692.5,490.4,696.2,490.5z"/>
	<path fill="#151D38" d="M643.9,490.5c3.7,0,6.9,1.2,9.6,3.6c0.4,0.4,0.8,0.8,1.1,1.2c0.4,0.7,0.4,1.4-0.2,1.9   c-0.5,0.5-1.2,0.5-1.8,0.1c-0.4-0.3-0.7-0.6-1.1-1c-4.2-3.6-9.6-3.9-14.1-0.7c-0.3,0.2-0.6,0.5-1,0.7c-0.8,0.5-1.6,0.5-2.1-0.2   c-0.6-0.7-0.4-1.5,0.3-2.1c0.5-0.5,1.1-0.9,1.7-1.3C638.7,491.2,641.3,490.4,643.9,490.5z"/>
	<path fill="#151D38" d="M903.8,768.8c0,2.5-2,4.6-4.6,4.6c-2.6,0-4.6-2-4.6-4.5c0-2.6,2-4.6,4.5-4.6   C901.8,764.2,903.8,766.3,903.8,768.8z"/>
	<path fill="#151D38" d="M586.2,573.8c0.1-2.5,0.9-4.8,2.6-6.7c0.6-0.7,1.3-1,2.1-0.5c0.7,0.4,0.9,1.1,0.5,1.8   c-0.2,0.4-0.6,0.8-0.8,1.2c-1.9,2.7-1.9,5.7,0.1,8.4c1.1,1.6,1.2,2.2,0.3,2.9c-0.8,0.6-1.7,0.3-2.8-1.1   C586.9,578.1,586.3,576,586.2,573.8z"/>
	<path fill="#151D38" d="M760.2,738.8c0.9,0,1.9,1,1.4,1.7c-1,1.9-1.2,3.7-0.3,5.7c0.3,0.6,0,1.3-0.7,1.6c-0.7,0.3-1.4,0.2-1.9-0.5   c-1.5-1.9-1.3-6.4,0.4-8.1C759.4,739.1,759.7,738.8,760.2,738.8z"/>
</g>
</svg>